<svg width="32" height="32" viewBox="0 0 32 32" fill="none" xmlns="http://www.w3.org/2000/svg">
<path d="M10.6732 27.293C12.6521 26.9025 14.0122 25.3492 13.7112 23.8237C13.4102 22.2982 11.562 21.3781 9.58308 21.7686C7.6042 22.1591 6.24403 23.7123 6.54506 25.2378C6.84609 26.7633 8.69432 27.6834 10.6732 27.293Z" fill="#939395"/>
<path d="M21.429 25.0277C23.3968 24.585 24.7152 22.9959 24.3738 21.4785C24.0324 19.961 22.1604 19.0898 20.1926 19.5325C18.2248 19.9753 16.9064 21.5643 17.2478 23.0818C17.5892 24.5992 19.4612 25.4704 21.429 25.0277Z" fill="#939395"/>
<path d="M13.7278 8.2471H12.6038V23.9795H13.7278V8.2471Z" fill="#939395"/>
<path d="M24.4031 6H23.28V21.7315H24.4031V6Z" fill="#939395"/>
<path d="M12.6038 8.2471L23.8411 6V10.4951L13.1658 13.3042L12.6038 8.2471Z" fill="#939395"/>
</svg>
