<svg width="32" height="32" viewBox="0 0 32 32" fill="none" xmlns="http://www.w3.org/2000/svg">
<g clip-path="url(#clip0)">
<path d="M23.875 8.3H8.125C7.50625 8.3 7 8.795 7 9.4V25.9C7 26.505 7.50625 27 8.125 27H23.875C24.4937 27 25 26.505 25 25.9V9.4C25 8.795 24.4937 8.3 23.875 8.3Z" fill="#007AFF"/>
<path d="M21.9456 6.65H10.0544C9.43563 6.65 8.92938 7.145 8.92938 7.75H23.0706C23.0706 7.145 22.57 6.65 21.9456 6.65Z" fill="#007AFF"/>
<path d="M19.9375 5H12.0625C11.4437 5 10.9375 5.495 10.9375 6.1H21.0625C21.0625 5.495 20.5562 5 19.9375 5Z" fill="#007AFF"/>
<path d="M12.625 12.7715V22.05H13.75V14.8285L19.375 13.888V20.95H20.5V11.5175L12.625 12.7715Z" fill="white"/>
<path d="M12.0625 23.7C12.9945 23.7 13.75 22.9613 13.75 22.05C13.75 21.1387 12.9945 20.4 12.0625 20.4C11.1305 20.4 10.375 21.1387 10.375 22.05C10.375 22.9613 11.1305 23.7 12.0625 23.7Z" fill="white"/>
<path d="M18.8125 22.6C19.7445 22.6 20.5 21.8613 20.5 20.95C20.5 20.0387 19.7445 19.3 18.8125 19.3C17.8805 19.3 17.125 20.0387 17.125 20.95C17.125 21.8613 17.8805 22.6 18.8125 22.6Z" fill="white"/>
</g>
<defs>
<clipPath id="clip0">
<rect width="18" height="22" fill="white" transform="translate(7 5)"/>
</clipPath>
</defs>
</svg>
