<svg width="32" height="32" viewBox="0 0 32 32" fill="none" xmlns="http://www.w3.org/2000/svg">
<path d="M11.5256 22.3046C9.50445 20.9212 8.17957 18.5985 8.17957 15.9644C8.17957 13.4424 9.39899 11.2111 11.2776 9.81045" stroke="#939395" stroke-width="1.9291" stroke-miterlimit="10" stroke-linecap="round"/>
<path d="M9.37839 7.26366C6.72614 9.2444 5 12.4001 5 15.9644C5 19.6886 6.87528 22.972 9.73186 24.9288" stroke="#939395" stroke-width="1.9291" stroke-miterlimit="10" stroke-linecap="round"/>
<path d="M20.1983 9.62424C22.217 11.0093 23.5452 13.3319 23.5452 15.9644C23.5452 18.4865 22.3257 20.7185 20.4472 22.1184" stroke="#939395" stroke-width="1.9291" stroke-miterlimit="10" stroke-linecap="round"/>
<path d="M22.3439 24.666C24.9978 22.6853 26.7222 19.5304 26.7222 15.9644C26.7222 12.2411 24.8478 8.95767 21.9912 7" stroke="#939395" stroke-width="1.9291" stroke-miterlimit="10" stroke-linecap="round"/>
<path d="M13.3193 19.682C12.1345 18.8704 11.3575 17.5085 11.3575 15.9644C11.3575 14.4871 12.0727 13.1787 13.1726 12.3572" stroke="#939395" stroke-width="1.9291" stroke-miterlimit="10" stroke-linecap="round"/>
<path d="M11.2776 9.81045C9.39981 11.2111 8.17957 13.4424 8.17957 15.9644C8.17957 18.5985 9.50445 20.9212 11.5264 22.3046" stroke="#939395" stroke-width="1.9291" stroke-miterlimit="10" stroke-linecap="round"/>
<path d="M23.5443 15.9644C23.5443 13.3319 22.2169 11.0084 20.1975 9.62424" stroke="#939395" stroke-width="1.9291" stroke-miterlimit="10" stroke-linecap="round"/>
<path d="M18.403 12.2485C19.5878 13.0592 20.3656 14.4212 20.3656 15.9644C20.3656 17.4434 19.6496 18.7518 18.5496 19.5724" stroke="#939395" stroke-width="1.9291" stroke-miterlimit="10" stroke-linecap="round"/>
<path d="M18.5496 19.5724C19.6496 18.7518 20.3656 17.4434 20.3656 15.9644C20.3656 14.4212 19.5878 13.06 18.403 12.2485" stroke="#939395" stroke-width="1.9291" stroke-miterlimit="10" stroke-linecap="round"/>
<path d="M13.1726 12.3572C12.0727 13.1787 11.3575 14.4871 11.3575 15.9644C11.3575 17.5085 12.1345 18.8696 13.3193 19.682" stroke="#939395" stroke-width="1.9291" stroke-miterlimit="10" stroke-linecap="round"/>
<path d="M15.8619 17.7095C16.7402 17.7095 17.4521 16.9976 17.4521 16.1193C17.4521 15.2411 16.7402 14.5291 15.8619 14.5291C14.9837 14.5291 14.2717 15.2411 14.2717 16.1193C14.2717 16.9976 14.9837 17.7095 15.8619 17.7095Z" fill="#939395"/>
</svg>
